# xmcd
#
# Track frame offsets: 
#        150
#        13910
#        27257
#        44915
#        58427
#        72875
#        86707
#        102042
#        116837
#        131450
#
# Disc length: 1951 seconds
#
# Revision: 2
# Processed by: cddbd v1.5.2PL0 Copyright (c) Steve Scherf et al.
# Submitted via: ExactAudioCopy v0.99pb5
#
DISCID=92079d0a
DTITLE=Mid South Boys - Shoulder To Shoulder
DYEAR=1991
DGENRE=Country
TTITLE0=Tabernacle
TTITLE1=Take Him At His Word
TTITLE2=Folks Like Us
TTITLE3=Heart Collector
TTITLE4=Rest Assured
TTITLE5=I Can't Help Myself
TTITLE6=Walking In Step
TTITLE7=My Father Knows Best
TTITLE8=Go Tell The People
TTITLE9=It's Only The First Time
EXTD=
EXTT0=
EXTT1=
EXTT2=
EXTT3=
EXTT4=
EXTT5=
EXTT6=
EXTT7=
EXTT8=
EXTT9=
PLAYORDER=
